<svg width="66" height="74" viewBox="0 0 66 74" fill="none" xmlns="http://www.w3.org/2000/svg">
<g clip-path="url(#clip0_7_2072)">
<path d="M41.3632 12.0908C43.6962 12.0908 45.5874 10.1762 45.5874 7.81445C45.5874 5.45268 43.6962 3.53809 41.3632 3.53809C39.0303 3.53809 37.1391 5.45268 37.1391 7.81445C37.1391 10.1762 39.0303 12.0908 41.3632 12.0908Z" fill="#F05A28"/>
<path d="M44.7214 13.4668L43.2757 14.008C45.367 20.159 46.6373 28.1969 46.6373 37.0009C46.6373 56.3288 40.532 71.9953 33.0017 71.9953C25.4715 71.9953 19.3661 56.3271 19.3661 37.0009C19.3661 17.6747 25.4698 2.00465 33 2.00465C34.3328 2.00465 35.6188 2.50362 36.8371 3.41898C37.1599 3.05354 37.6285 2.59498 38.2064 2.2313C36.582 0.78886 34.8292 0 33 0C24.6107 0 17.8112 16.5661 17.8112 36.9991C17.8112 57.4322 24.6107 73.9982 33 73.9982C41.3893 73.9982 48.1889 57.4322 48.1889 36.9991C48.1889 28.0599 46.8873 19.8621 44.7214 13.4668Z" fill="#F05A28"/>
<path d="M11.9383 62.0049C14.2712 62.0049 16.1624 60.0903 16.1624 57.7285C16.1624 55.3667 14.2712 53.4521 11.9383 53.4521C9.60538 53.4521 7.71417 55.3667 7.71417 57.7285C7.71417 60.0903 9.60538 62.0049 11.9383 62.0049Z" fill="#F05A28"/>
<path d="M18.4533 57.6903L18.1566 56.1583C24.432 54.7633 31.872 51.6763 39.2963 47.0925C55.5959 37.0306 65.6321 23.5971 61.71 17.086C57.7895 10.5765 41.3963 13.4561 25.0967 23.5181C8.7989 33.5817 -1.2356 47.017 2.68483 53.5264C3.37902 54.6789 4.47063 55.531 5.87463 56.1055C5.73406 56.5746 5.59175 57.2177 5.58654 57.9064C3.52306 57.2546 1.94552 56.1495 0.994482 54.5682C-3.3737 47.3174 7.05649 32.8157 24.2915 22.1775C41.5247 11.5393 59.0356 8.79326 63.4038 16.0441C67.772 23.2949 57.3418 37.7966 40.1068 48.4348C32.5679 53.0889 24.977 56.232 18.4551 57.6885L18.4533 57.6903Z" fill="#F05A28"/>
<path d="M61.7758 46.1572C64.1088 46.1572 66 44.2426 66 41.8809C66 39.5191 64.1088 37.6045 61.7758 37.6045C59.4429 37.6045 57.5517 39.5191 57.5517 41.8809C57.5517 44.2426 59.4429 46.1572 61.7758 46.1572Z" fill="#F05A28"/>
<path d="M58.6017 36.122L57.4198 37.1235C53.1887 32.2287 46.9306 27.1178 39.3848 22.7413C22.8197 13.1309 6.35703 10.7046 2.61188 17.3212C-1.13154 23.936 9.26047 37.0883 25.8256 46.697C42.3906 56.3056 58.8533 58.7319 62.5985 52.1171C63.2614 50.947 63.4731 49.5678 63.2944 48.0445C63.7682 47.9426 64.393 47.7582 64.9934 47.4314C65.4238 49.5748 65.2277 51.5074 64.3183 53.1133C60.148 60.4818 42.5694 58.2207 25.055 48.0604C7.54062 37.9018 -3.27658 23.6918 0.893759 16.3232C5.0641 8.95468 22.6427 11.2158 40.1571 21.3761C47.8192 25.8194 54.1988 31.0392 58.6017 36.122Z" fill="#F05A28"/>
</g>
<defs>
<clipPath id="clip0_7_2072">
<rect width="66" height="74" fill="white"/>
</clipPath>
</defs>
</svg>
