<svg width="376" height="342" viewBox="0 0 376 342" fill="none" xmlns="http://www.w3.org/2000/svg">
<g id="Desktop - 1">

<g id="Group 19">
<path id="Vector" d="M330.158 82.3531C295.339 90.5359 263.49 104.689 234.542 124.771C232.221 100.945 212.187 82.3531 187.837 82.3531C163.487 82.3531 143.438 100.945 141.132 124.771C112.184 104.689 80.3495 90.5359 45.5155 82.3531L187.837 0L330.158 82.3531Z" fill="#F05A28"/>
<path id="Vector_2" d="M45.5303 200.005C162.653 235.119 187.852 341.183 187.852 341.183L45.5303 258.83V200.005Z" fill="#F05A28"/>
<path id="Vector_3" d="M330.158 200.005C213.036 235.119 187.837 341.183 187.837 341.183L330.158 258.83V200.005Z" fill="#F05A28"/>
<path id="Vector_4" d="M187.824 282.329C187.824 282.329 185.164 276.855 179.193 268.218C176.618 264.375 173.293 259.936 169.317 254.987C144.472 224.695 92.4333 178.292 0 164.706V94.0673C134.002 110.617 172.416 200.231 183.395 249.584C184.499 254.533 185.305 259.043 185.899 263.099C187.739 274.926 187.809 282.315 187.809 282.315" fill="#F05A28"/>
<path id="Vector_5" d="M375.632 94.0815V164.706C283.199 178.307 231.16 224.695 206.315 254.987C202.339 259.936 199.014 264.375 196.439 268.204C190.468 276.855 187.808 282.315 187.808 282.315C187.808 282.315 187.879 274.926 189.718 263.099C190.313 259.043 191.119 254.533 192.223 249.584C203.273 200.231 241.687 110.617 375.618 94.0673" fill="#F05A28"/>
<path id="Vector_6" d="M197.543 272.657C197.543 278.046 193.199 282.414 187.809 282.414C182.418 282.414 178.089 278.061 178.089 272.657C178.089 271.041 178.456 269.552 179.192 268.233C180.437 265.652 182.942 263.652 185.899 263.127C187.738 274.955 187.809 282.343 187.809 282.343C187.809 282.343 187.879 274.955 189.719 263.127C192.676 263.652 195.18 265.637 196.425 268.233C197.161 269.552 197.529 271.041 197.529 272.657" fill="#F05A28"/>
</g>
</g>
</svg>
