<svg width="44" height="42" viewBox="0 0 44 42" fill="none" xmlns="http://www.w3.org/2000/svg">
<path d="M13.8016 11.151L3.16696 11.0569C-0.526339 11.0569 0.334266 24.8048 3.58393 24.8048H13.7844" stroke="currentColor" stroke-width="1.5" stroke-linecap="round" stroke-linejoin="round"/>
<path d="M4.75345 14.4634C4.54809 16.4605 4.6782 19.3355 5.20649 21.4016" stroke="currentColor" stroke-width="1.5" stroke-linecap="round" stroke-linejoin="round"/>
<path d="M10.8734 27.4167L13.2734 36.6797C13.6732 38.2913 12.6918 39.9231 11.0788 40.3229C9.46726 40.7226 7.83537 39.7413 7.43563 38.1282L4.67664 27.4183" stroke="currentColor" stroke-width="1.5" stroke-linecap="round" stroke-linejoin="round"/>
<path d="M29.4872 0.75H27.3051C26.1995 0.75 25.3032 1.64626 25.3032 2.75184V33.1996C25.3032 34.3052 26.1995 35.2014 27.3051 35.2014H29.4872C30.5928 35.2014 31.489 34.3052 31.489 33.1996V2.75184C31.489 1.64626 30.5928 0.75 29.4872 0.75Z" stroke="currentColor" stroke-width="1.5" stroke-linecap="round" stroke-linejoin="round"/>
<path d="M23.0882 4.90259L13.8016 11.1511L13.7828 24.805L23.0882 31.066" stroke="currentColor" stroke-width="1.5" stroke-linecap="round" stroke-linejoin="round"/>
<path d="M39.5543 17.9749H43.0579" stroke="currentColor" stroke-width="1.5" stroke-linecap="round" stroke-linejoin="round"/>
<path d="M37.2062 12.2264L40.0671 9.36548" stroke="currentColor" stroke-width="1.5" stroke-linecap="round" stroke-linejoin="round"/>
<path d="M37.1512 23.6997L40.0137 26.5622" stroke="currentColor" stroke-width="1.5" stroke-linecap="round" stroke-linejoin="round"/>
<path d="M33.9298 14.3286C35.1008 15.1203 35.8705 16.4605 35.8705 17.9796C35.8705 19.4986 35.1212 20.8028 33.9768 21.5992" stroke="currentColor" stroke-width="1.5" stroke-linecap="round" stroke-linejoin="round"/>
</svg>
